<?xml version="1.0" encoding="UTF-8"?>
<svg id="Layer_1" data-name="Layer 1" xmlns="http://www.w3.org/2000/svg" viewBox="0 0 490.54 517.96">
  <defs>
    <style>
      .cls-1, .cls-2, .cls-3, .cls-4 {
        stroke: #760000;
        stroke-miterlimit: 10;
      }

      .cls-1, .cls-3, .cls-4 {
        stroke-width: 30px;
      }

      .cls-1, .cls-4 {
        fill: #020003;
      }

      .cls-2 {
        stroke-width: 58px;
      }

      .cls-2, .cls-3 {
        fill: none;
      }

      .cls-2, .cls-3, .cls-4 {
        stroke-linecap: round;
      }
    </style>
  </defs>
  <path class="cls-1" d="M334.39,440.84c0-47.43,38.45-85.88,85.88-85.88,6.59,0,13,.77,19.17,2.17,5.17-17.87,7.95-36.76,7.95-56.29,0-79.64-46.07-148.51-113-181.45l-89.12,89.12-89.12-89.12c-66.93,32.94-113,101.81-113,181.45,0,19.54,2.78,38.42,7.95,56.29,6.17-1.41,12.57-2.17,19.17-2.17,47.43,0,85.88,38.45,85.88,85.88,0,13.28-3.02,25.85-8.4,37.07,28.92,15.96,62.15,25.05,97.52,25.05s68.6-9.09,97.52-25.05c-5.38-11.22-8.4-23.79-8.4-37.07Z"/>
  <path class="cls-2" d="M61.88,338.66c0,34.97,91.52,120.58,182.6,120.58s182.6-85.6,182.6-120.58"/>
  <rect class="cls-1" x="190.1" y="44.06" width="110.34" height="110.34" transform="translate(142.01 -144.37) rotate(45)"/>
  <circle class="cls-4" cx="73.86" cy="440.15" r="58.86"/>
  <circle class="cls-4" cx="416.68" cy="440.15" r="58.86"/>
  <path class="cls-3" d="M104.56,362.08h0c-16.16-8.86-27.94-24-32.55-41.84l-13.33-51.6c-4.09-15.84-.46-40.17,6.68-54.89l7.81-17.35"/>
  <path class="cls-3" d="M385.98,362.08h0c16.16-8.86,27.94-24,32.55-41.84l13.33-51.6c4.09-15.84.46-40.17-6.68-54.89l-7.81-17.35"/>
</svg>