<?xml version="1.0" encoding="UTF-8"?>
<svg id="Layer_1" data-name="Layer 1" xmlns="http://www.w3.org/2000/svg" viewBox="0 0 515.31 536.04">
  <defs>
    <style>
      .cls-1, .cls-2, .cls-3 {
        fill: #231f20;
      }

      .cls-1, .cls-3 {
        stroke: rgba(255, 255, 255, 0);
        stroke-miterlimit: 10;
        stroke-width: 50px;
      }

      .cls-3 {
        stroke-linecap: round;
      }
    </style>
  </defs>
  <path class="cls-2" d="M349.16,453.81c0-47.43,38.45-85.88,85.88-85.88,6.59,0,13,.77,19.17,2.17,5.17-17.87,7.95-36.76,7.95-56.29,0-79.64-46.07-148.51-113-181.45l-89.12,89.12-89.12-89.12c-66.93,32.94-113,101.81-113,181.45,0,19.54,2.78,38.42,7.95,56.29,6.17-1.41,12.57-2.17,19.17-2.17,47.43,0,85.88,38.45,85.88,85.88,0,13.28-3.02,25.85-8.4,37.07,28.92,15.96,62.15,25.05,97.52,25.05s68.6-9.09,97.52-25.05c-5.38-11.22-8.4-23.79-8.4-37.07Z"/>
  <circle class="cls-3" cx="83.02" cy="453.03" r="58.02"/>
  <circle class="cls-3" cx="432.29" cy="453.03" r="58.02"/>
  <rect class="cls-1" x="205.7" y="57.86" width="108.68" height="108.68" transform="translate(155.51 -151.01) rotate(45)"/>
</svg>