<?xml version="1.0" encoding="UTF-8"?>
<svg id="Layer_1" data-name="Layer 1" xmlns="http://www.w3.org/2000/svg" viewBox="0 0 490.54 406.58">
  <defs>
    <style>
      .cls-1, .cls-2, .cls-3 {
        fill: #fff;
        stroke-miterlimit: 10;
      }

      .cls-1, .cls-3 {
        stroke: #89ffff;
        stroke-width: 30px;
      }

      .cls-2 {
        stroke: #682b8a;
        stroke-width: 58px;
      }

      .cls-2, .cls-3 {
        stroke-linecap: round;
      }
    </style>
  </defs>
  <path class="cls-2" d="M61.88,227.27c0,34.97,91.52,120.58,182.6,120.58s182.6-85.6,182.6-120.58"/>
  <circle class="cls-3" cx="73.86" cy="328.77" r="58.86"/>
  <circle class="cls-3" cx="416.68" cy="328.77" r="58.86"/>
  <circle class="cls-3" cx="244.49" cy="73.86" r="58.86"/>
  <path class="cls-1" d="M43.21,194.31c.42,17.81,3.15,35.05,7.89,51.44,6.17-1.41,12.57-2.17,19.17-2.17,47.43,0,85.88,38.45,85.88,85.88,0,13.28-3.02,25.85-8.4,37.07,28.92,15.96,62.15,25.05,97.52,25.05s68.6-9.09,97.52-25.05c-5.38-11.22-8.4-23.79-8.4-37.07,0-47.43,38.45-85.88,85.88-85.88,6.59,0,13,.77,19.17,2.17,4.74-16.39,7.47-33.63,7.89-51.44H43.21Z"/>
</svg>