<svg version="1.2" xmlns="http://www.w3.org/2000/svg" viewBox="0 0 500 500" width="500" height="500"><style>.a{fill:#231f20}</style><path class="a" d="m335.5 412.3c0-45.5 36.8-82.3 82.3-82.3q9.5 0 18.3 2c5-17.1 7.7-35.3 7.7-54 0-76.3-44.2-142.4-108.3-174l-85.5 85.5-85.5-85.5c-64.2 31.6-108.4 97.7-108.4 174 0 18.8 2.7 36.9 7.7 54 5.9-1.3 12-2 18.4-2 45.4 0 82.3 36.8 82.3 82.3 0 12.7-2.9 24.8-8.1 35.6 27.8 15.3 59.7 24 93.6 24 33.9 0 65.8-8.7 93.5-24-5.1-10.8-8-22.9-8-35.6z"/><path class="a" d="m333.7 91l-83.2 83.4-83.3-83.4 83.3-83.2z"/><path class="a" d="m77.5 494.2c-42.8 0-77.5-34.6-77.5-77.5 0-42.9 34.7-77.5 77.5-77.5 42.9 0 77.5 34.6 77.5 77.5 0 42.9-34.6 77.5-77.5 77.5z"/><path class="a" d="m422.5 494.2c-42.9 0-77.5-34.6-77.5-77.5 0-42.9 34.6-77.5 77.5-77.5 42.8 0 77.5 34.6 77.5 77.5 0 42.9-34.7 77.5-77.5 77.5z"/></svg>