<svg version="1.2" xmlns="http://www.w3.org/2000/svg" viewBox="0 0 516 537" width="516" height="537">
	<title>Shadowfiend-svg</title>
	<style>
		.s0 { fill: #231f20 } 
	</style>
	<path class="s0" d="m346.2 417.5c0-47 38-85 85-85 6.5 0 12.8 0.7 18.9 2.1 5.1-17.7 7.9-36.4 7.9-55.7 0-78.8-45.6-147-111.8-179.6l-88.2 88.2-88.2-88.2c-66.3 32.6-111.9 100.8-111.9 179.6 0 19.4 2.8 38 7.9 55.7 6.1-1.4 12.4-2.1 19-2.1 46.9 0 85 38 85 85 0 13.1-3 25.6-8.4 36.7 28.7 15.8 61.6 24.8 96.6 24.8 35 0 67.9-9 96.5-24.8-5.3-11.1-8.3-23.6-8.3-36.7z"/>
	<path id="Layer 1" class="s0" d="m344.4 85.9l-85.9 86-85.9-86 85.9-85.9z"/>
	<path id="Shape 1" class="s0" d="m80 502c-44.2 0-80-35.8-80-80 0-44.2 35.8-80 80-80 44.2 0 80 35.8 80 80 0 44.2-35.8 80-80 80z"/>
	<path id="Shape 1 copy" class="s0" d="m436 502c-44.2 0-80-35.8-80-80 0-44.2 35.8-80 80-80 44.2 0 80 35.8 80 80 0 44.2-35.8 80-80 80z"/>
</svg>
